M48
;GenerationSoftware,Autodesk,EAGLE,9.7.0*%
;CreationDate,2024-06-04T12:02:14Z*%
FMAT,2
ICI,OFF
METRIC,TZ,000.000
T4C0.813
T3C1.016
T2C1.200
T1C3.200
%
G90
M71
T1
X110490Y2540
X110490Y74930
X7620Y74930
X7620Y2540
X85344Y44958
X27432Y44958
T2
X93218Y2286
X80772Y2286
X75692Y2286
X54864Y69342
X59944Y69342
X98298Y2286
X25908Y2286
X20828Y2286
X45720Y2286
X40640Y2286
X62484Y2286
X57404Y2286
T3
X44450Y51308
X41910Y51308
X39370Y51308
X73406Y51308
X70866Y51308
X68326Y51308
X15494Y51308
X12954Y51308
X10414Y51308
X99822Y51308
X102362Y51308
X97282Y51308
T4
X76599Y61903
X76599Y56823
X64988Y61903
X36431Y61903
X36431Y56823
X7874Y61903
X7874Y56823
X48042Y61903
X48042Y56823
X19485Y61903
X64988Y56823
X105156Y56823
X105156Y61903
X93545Y56823
X93545Y61903
X19485Y56823
M30