G04 EAGLE Gerber RS-274X export*
G75*
%MOMM*%
%FSLAX34Y34*%
%LPD*%
%INTop Copper*%
%IPPOS*%
%AMOC8*
5,1,8,0,0,1.08239X$1,22.5*%
G01*
G04 Define Apertures*
%ADD10C,1.524000*%
%ADD11P,1.73204X8X292.5*%
%ADD12P,1.73204X8X112.5*%
%ADD13C,1.800000*%
D10*
X444500Y520700D02*
X444500Y505460D01*
X419100Y505460D02*
X419100Y520700D01*
X393700Y520700D02*
X393700Y505460D01*
X734060Y505460D02*
X734060Y520700D01*
X708660Y520700D02*
X708660Y505460D01*
X683260Y505460D02*
X683260Y520700D01*
X154940Y520700D02*
X154940Y505460D01*
X129540Y505460D02*
X129540Y520700D01*
X104140Y520700D02*
X104140Y505460D01*
D11*
X765991Y619034D03*
X765991Y568234D03*
X649877Y619034D03*
X649877Y568234D03*
X364309Y619034D03*
X364309Y568234D03*
X78740Y619034D03*
X78740Y568234D03*
X194854Y619034D03*
X194854Y568234D03*
X480423Y619034D03*
X480423Y568234D03*
D10*
X1023620Y520700D02*
X1023620Y505460D01*
X998220Y505460D02*
X998220Y520700D01*
X972820Y520700D02*
X972820Y505460D01*
D12*
X1051560Y568234D03*
X1051560Y619034D03*
X935446Y568234D03*
X935446Y619034D03*
D13*
X259080Y22860D03*
X208280Y22860D03*
X457200Y22860D03*
X406400Y22860D03*
X624840Y22860D03*
X574040Y22860D03*
X982980Y22860D03*
X932180Y22860D03*
X807720Y22860D03*
X756920Y22860D03*
X548640Y693420D03*
X599440Y693420D03*
M02*
