G04 EAGLE Gerber RS-274X export*
G75*
%MOMM*%
%FSLAX34Y34*%
%LPD*%
%INBottom Copper*%
%IPPOS*%
%AMOC8*
5,1,8,0,0,1.08239X$1,22.5*%
G01*
G04 Define Apertures*
%ADD10C,1.524000*%
%ADD11P,1.73204X8X292.5*%
%ADD12P,1.73204X8X112.5*%
%ADD13C,1.800000*%
%ADD14C,0.508000*%
%ADD15C,0.812800*%
%ADD16C,0.609600*%
G36*
X1156691Y-27739D02*
X1155700Y-27940D01*
X33020Y-27940D01*
X32104Y-27769D01*
X31253Y-27224D01*
X30681Y-26391D01*
X30480Y-25400D01*
X30480Y800100D01*
X30651Y801016D01*
X31196Y801867D01*
X32029Y802439D01*
X33020Y802640D01*
X1155700Y802640D01*
X1156616Y802469D01*
X1157467Y801924D01*
X1158039Y801091D01*
X1158240Y800100D01*
X1158240Y-25400D01*
X1158069Y-26316D01*
X1157524Y-27167D01*
X1156691Y-27739D01*
G37*
%LPC*%
G36*
X979169Y3700D02*
X986791Y3700D01*
X993833Y6617D01*
X999223Y12007D01*
X1002140Y19049D01*
X1002140Y26671D01*
X999223Y33713D01*
X997948Y34988D01*
X997405Y35794D01*
X997204Y36784D01*
X997204Y122596D01*
X997390Y123549D01*
X997948Y124392D01*
X1116959Y243403D01*
X1119124Y248631D01*
X1119124Y620049D01*
X1116959Y625277D01*
X968177Y774059D01*
X962949Y776224D01*
X576291Y776224D01*
X571063Y774059D01*
X536581Y739577D01*
X534416Y734349D01*
X534416Y732455D01*
X534260Y731577D01*
X533728Y730717D01*
X532904Y730132D01*
X531917Y729915D01*
X530923Y730101D01*
X530080Y730659D01*
X518022Y742717D01*
X513167Y744728D01*
X507913Y744728D01*
X507153Y744413D01*
X506181Y744220D01*
X294654Y744220D01*
X289986Y742287D01*
X184088Y636388D01*
X182558Y632695D01*
X182007Y631871D01*
X176693Y626557D01*
X176693Y619886D01*
X176508Y618933D01*
X175949Y618090D01*
X144173Y586314D01*
X142240Y581646D01*
X142240Y534197D01*
X142054Y533244D01*
X141496Y532401D01*
X139867Y530772D01*
X139555Y530020D01*
X139061Y529254D01*
X138237Y528669D01*
X137249Y528452D01*
X136256Y528637D01*
X135413Y529196D01*
X135295Y529313D01*
X131561Y530860D01*
X130302Y530860D01*
X130302Y495300D01*
X131561Y495300D01*
X135295Y496847D01*
X135413Y496964D01*
X136163Y497483D01*
X137148Y497708D01*
X138143Y497530D01*
X138991Y496979D01*
X139555Y496140D01*
X139867Y495389D01*
X144868Y490387D01*
X151403Y487680D01*
X158477Y487680D01*
X165012Y490387D01*
X170013Y495388D01*
X172720Y501923D01*
X172720Y524237D01*
X170013Y530772D01*
X168384Y532401D01*
X167841Y533206D01*
X167640Y534197D01*
X167640Y572807D01*
X167826Y573761D01*
X168384Y574603D01*
X193910Y600129D01*
X194715Y600672D01*
X195706Y600873D01*
X202377Y600873D01*
X213015Y611512D01*
X213015Y626730D01*
X212866Y626948D01*
X212649Y627935D01*
X212834Y628929D01*
X213392Y629772D01*
X301697Y718076D01*
X302502Y718619D01*
X303493Y718820D01*
X503509Y718820D01*
X504462Y718634D01*
X505305Y718076D01*
X528736Y694645D01*
X529279Y693840D01*
X529480Y692849D01*
X529480Y689609D01*
X532397Y682567D01*
X536212Y678752D01*
X536755Y677946D01*
X536956Y676956D01*
X536956Y657184D01*
X536770Y656231D01*
X536212Y655388D01*
X514827Y634002D01*
X514021Y633459D01*
X513030Y633258D01*
X492934Y633258D01*
X491981Y633444D01*
X491138Y634002D01*
X487945Y637195D01*
X472900Y637195D01*
X462262Y626557D01*
X462262Y622041D01*
X462076Y621088D01*
X461518Y620245D01*
X432441Y591169D01*
X430276Y585941D01*
X430276Y532673D01*
X430090Y531720D01*
X429532Y530877D01*
X429427Y530772D01*
X429115Y530020D01*
X428621Y529254D01*
X427797Y528669D01*
X426809Y528452D01*
X425816Y528637D01*
X424973Y529196D01*
X424855Y529313D01*
X421121Y530860D01*
X419862Y530860D01*
X419862Y495300D01*
X421121Y495300D01*
X424855Y496847D01*
X424973Y496964D01*
X425723Y497483D01*
X426708Y497708D01*
X427703Y497530D01*
X428551Y496979D01*
X429115Y496140D01*
X429427Y495389D01*
X434428Y490387D01*
X440963Y487680D01*
X448037Y487680D01*
X454572Y490387D01*
X459573Y495388D01*
X462280Y501923D01*
X462280Y524237D01*
X459573Y530772D01*
X459468Y530877D01*
X458925Y531682D01*
X458724Y532673D01*
X458724Y576168D01*
X458910Y577121D01*
X459468Y577964D01*
X481634Y600129D01*
X482439Y600672D01*
X483430Y600873D01*
X487945Y600873D01*
X491138Y604066D01*
X491944Y604609D01*
X492934Y604810D01*
X522804Y604810D01*
X528032Y606976D01*
X563239Y642183D01*
X565404Y647411D01*
X565404Y651845D01*
X565560Y652723D01*
X566092Y653583D01*
X566916Y654168D01*
X567904Y654385D01*
X568897Y654199D01*
X569740Y653641D01*
X574178Y649203D01*
X579033Y647192D01*
X604607Y647192D01*
X605367Y647507D01*
X606339Y647700D01*
X718313Y647700D01*
X719266Y647514D01*
X720109Y646956D01*
X747086Y619979D01*
X747629Y619173D01*
X747830Y618183D01*
X747830Y611512D01*
X758469Y600873D01*
X773514Y600873D01*
X778231Y605590D01*
X779036Y606133D01*
X780027Y606334D01*
X784353Y606334D01*
X785306Y606149D01*
X786149Y605590D01*
X794276Y597463D01*
X794819Y596658D01*
X795020Y595667D01*
X795020Y547333D01*
X794834Y546379D01*
X794276Y545537D01*
X772723Y523984D01*
X771918Y523441D01*
X770927Y523240D01*
X753950Y523240D01*
X753016Y523418D01*
X752168Y523970D01*
X751603Y524808D01*
X749133Y530772D01*
X744132Y535773D01*
X737597Y538480D01*
X730523Y538480D01*
X723988Y535773D01*
X718987Y530772D01*
X718675Y530020D01*
X718181Y529254D01*
X717357Y528669D01*
X716369Y528452D01*
X715376Y528637D01*
X714533Y529196D01*
X714415Y529313D01*
X710681Y530860D01*
X709422Y530860D01*
X709422Y495300D01*
X710681Y495300D01*
X714415Y496847D01*
X714533Y496964D01*
X715283Y497483D01*
X716268Y497708D01*
X717263Y497530D01*
X718111Y496979D01*
X718675Y496140D01*
X718987Y495389D01*
X723988Y490387D01*
X730523Y487680D01*
X737597Y487680D01*
X744132Y490387D01*
X749133Y495388D01*
X749499Y496272D01*
X750021Y497067D01*
X750855Y497639D01*
X751846Y497840D01*
X779766Y497840D01*
X784434Y499773D01*
X818487Y533826D01*
X820420Y538494D01*
X820420Y604506D01*
X818487Y609174D01*
X797860Y629801D01*
X793192Y631734D01*
X780027Y631734D01*
X779074Y631920D01*
X778231Y632478D01*
X773514Y637195D01*
X766843Y637195D01*
X765890Y637381D01*
X765047Y637939D01*
X731820Y671167D01*
X727152Y673100D01*
X606339Y673100D01*
X605367Y673293D01*
X604607Y673608D01*
X588183Y673608D01*
X587230Y673794D01*
X586387Y674352D01*
X569115Y691624D01*
X568588Y692392D01*
X568371Y693380D01*
X568557Y694373D01*
X569115Y695216D01*
X584719Y710820D01*
X585524Y711363D01*
X586515Y711564D01*
X888499Y711564D01*
X889453Y711378D01*
X890295Y710820D01*
X913813Y687303D01*
X914572Y686988D01*
X915396Y686438D01*
X1032655Y569179D01*
X1033198Y568373D01*
X1033399Y567383D01*
X1033399Y560712D01*
X1038116Y555995D01*
X1038659Y555189D01*
X1038860Y554199D01*
X1038860Y547333D01*
X1038674Y546379D01*
X1038116Y545537D01*
X1031116Y538537D01*
X1030330Y538002D01*
X1029341Y537793D01*
X1028348Y537986D01*
X1027157Y538480D01*
X1020083Y538480D01*
X1013548Y535773D01*
X1008547Y530772D01*
X1008235Y530020D01*
X1007741Y529254D01*
X1006917Y528669D01*
X1005929Y528452D01*
X1004936Y528637D01*
X1004093Y529196D01*
X1003975Y529313D01*
X1000241Y530860D01*
X998982Y530860D01*
X998982Y495300D01*
X1000241Y495300D01*
X1003975Y496847D01*
X1004093Y496964D01*
X1004843Y497483D01*
X1005828Y497708D01*
X1006823Y497530D01*
X1007671Y496979D01*
X1008235Y496140D01*
X1008547Y495389D01*
X1013548Y490387D01*
X1020083Y487680D01*
X1027157Y487680D01*
X1033692Y490387D01*
X1038693Y495388D01*
X1041400Y501923D01*
X1041400Y511847D01*
X1041586Y512801D01*
X1042144Y513643D01*
X1062327Y533826D01*
X1064260Y538494D01*
X1064260Y554199D01*
X1064446Y555152D01*
X1065004Y555995D01*
X1069721Y560712D01*
X1069721Y575757D01*
X1059082Y586395D01*
X1052412Y586395D01*
X1051458Y586581D01*
X1050616Y587139D01*
X933357Y704398D01*
X932806Y705222D01*
X932491Y705982D01*
X902504Y735969D01*
X897650Y737980D01*
X581348Y737980D01*
X580470Y738136D01*
X579610Y738668D01*
X579025Y739492D01*
X578808Y740480D01*
X578994Y741473D01*
X579552Y742316D01*
X584268Y747032D01*
X585073Y747575D01*
X586064Y747776D01*
X953176Y747776D01*
X954129Y747590D01*
X954972Y747032D01*
X1089932Y612072D01*
X1090475Y611267D01*
X1090676Y610276D01*
X1090676Y258404D01*
X1090490Y257451D01*
X1089932Y256608D01*
X970921Y137597D01*
X968756Y132369D01*
X968756Y36784D01*
X968570Y35831D01*
X968012Y34988D01*
X966737Y33713D01*
X963820Y26671D01*
X963820Y19049D01*
X966737Y12007D01*
X972127Y6617D01*
X979169Y3700D01*
G37*
G36*
X1101456Y723138D02*
X1108344Y723138D01*
X1114998Y724921D01*
X1120964Y728365D01*
X1125835Y733236D01*
X1129279Y739202D01*
X1131062Y745856D01*
X1131062Y752744D01*
X1129279Y759398D01*
X1125835Y765364D01*
X1120964Y770235D01*
X1114998Y773679D01*
X1108344Y775462D01*
X1101456Y775462D01*
X1094802Y773679D01*
X1088836Y770235D01*
X1083965Y765364D01*
X1080521Y759398D01*
X1078738Y752744D01*
X1078738Y745856D01*
X1080521Y739202D01*
X1083965Y733236D01*
X1088836Y728365D01*
X1094802Y724921D01*
X1101456Y723138D01*
G37*
G36*
X72756Y723138D02*
X79644Y723138D01*
X86298Y724921D01*
X92264Y728365D01*
X97135Y733236D01*
X100579Y739202D01*
X102362Y745856D01*
X102362Y752744D01*
X100579Y759398D01*
X97135Y765364D01*
X92264Y770235D01*
X86298Y773679D01*
X79644Y775462D01*
X72756Y775462D01*
X66102Y773679D01*
X60136Y770235D01*
X55265Y765364D01*
X51821Y759398D01*
X50038Y752744D01*
X50038Y745856D01*
X51821Y739202D01*
X55265Y733236D01*
X60136Y728365D01*
X66102Y724921D01*
X72756Y723138D01*
G37*
G36*
X587900Y694182D02*
X598678Y694182D01*
X598678Y704960D01*
X597145Y704960D01*
X592903Y703203D01*
X589657Y699957D01*
X587900Y695715D01*
X587900Y694182D01*
G37*
G36*
X600202Y694182D02*
X610980Y694182D01*
X610980Y695715D01*
X609223Y699957D01*
X605977Y703203D01*
X601735Y704960D01*
X600202Y704960D01*
X600202Y694182D01*
G37*
G36*
X600202Y681880D02*
X601735Y681880D01*
X605977Y683637D01*
X609223Y686883D01*
X610980Y691125D01*
X610980Y692658D01*
X600202Y692658D01*
X600202Y681880D01*
G37*
G36*
X597145Y681880D02*
X598678Y681880D01*
X598678Y692658D01*
X587900Y692658D01*
X587900Y691125D01*
X589657Y686883D01*
X592903Y683637D01*
X597145Y681880D01*
G37*
G36*
X255269Y3700D02*
X262891Y3700D01*
X269933Y6617D01*
X275323Y12007D01*
X278240Y19049D01*
X278240Y26671D01*
X275323Y33713D01*
X272888Y36148D01*
X272345Y36954D01*
X272144Y37944D01*
X272144Y258906D01*
X270211Y263574D01*
X121140Y412645D01*
X120597Y413450D01*
X120396Y414441D01*
X120396Y494449D01*
X120560Y495346D01*
X121098Y496202D01*
X121927Y496780D01*
X122916Y496989D01*
X123908Y496796D01*
X127519Y495300D01*
X128778Y495300D01*
X128778Y530860D01*
X127519Y530860D01*
X123785Y529313D01*
X123667Y529196D01*
X122918Y528677D01*
X121932Y528452D01*
X120937Y528630D01*
X120090Y529181D01*
X119525Y530020D01*
X119213Y530772D01*
X117584Y532401D01*
X117041Y533206D01*
X116840Y534197D01*
X116840Y596161D01*
X114907Y600828D01*
X97645Y618090D01*
X97102Y618895D01*
X96901Y619886D01*
X96901Y626557D01*
X86263Y637195D01*
X71218Y637195D01*
X60579Y626557D01*
X60579Y611512D01*
X71218Y600873D01*
X77888Y600873D01*
X78842Y600688D01*
X79684Y600129D01*
X90696Y589118D01*
X91239Y588312D01*
X91440Y587322D01*
X91440Y576574D01*
X91284Y575696D01*
X90752Y574836D01*
X89928Y574251D01*
X88941Y574034D01*
X87947Y574219D01*
X87104Y574778D01*
X83106Y578775D01*
X79502Y578775D01*
X79502Y557693D01*
X83106Y557693D01*
X87104Y561691D01*
X87835Y562201D01*
X88819Y562434D01*
X89816Y562264D01*
X90667Y561719D01*
X91239Y560886D01*
X91440Y559895D01*
X91440Y534197D01*
X91254Y533244D01*
X90696Y532401D01*
X89067Y530772D01*
X86360Y524237D01*
X86360Y501923D01*
X89067Y495388D01*
X94252Y490203D01*
X94795Y489398D01*
X94996Y488407D01*
X94996Y405602D01*
X96929Y400934D01*
X246000Y251864D01*
X246543Y251058D01*
X246744Y250068D01*
X246744Y38672D01*
X246558Y37719D01*
X246000Y36876D01*
X242837Y33713D01*
X239920Y26671D01*
X239920Y19049D01*
X242837Y12007D01*
X248227Y6617D01*
X255269Y3700D01*
G37*
G36*
X453389Y3700D02*
X461011Y3700D01*
X468053Y6617D01*
X473443Y12007D01*
X476360Y19049D01*
X476360Y26671D01*
X473443Y33713D01*
X468053Y39103D01*
X461011Y42020D01*
X459208Y42020D01*
X458255Y42206D01*
X457412Y42764D01*
X408668Y91508D01*
X408125Y92313D01*
X407924Y93304D01*
X407924Y493487D01*
X408110Y494440D01*
X408668Y495283D01*
X408773Y495389D01*
X409085Y496140D01*
X409579Y496906D01*
X410403Y497491D01*
X411391Y497708D01*
X412385Y497523D01*
X413227Y496964D01*
X413345Y496847D01*
X417079Y495300D01*
X418338Y495300D01*
X418338Y530860D01*
X417079Y530860D01*
X413345Y529313D01*
X413227Y529196D01*
X412478Y528677D01*
X411492Y528452D01*
X410497Y528630D01*
X409650Y529181D01*
X409085Y530020D01*
X408773Y530772D01*
X407144Y532401D01*
X406601Y533206D01*
X406400Y534197D01*
X406400Y591806D01*
X404467Y596474D01*
X383214Y617727D01*
X382671Y618532D01*
X382470Y619523D01*
X382470Y626557D01*
X371831Y637195D01*
X356786Y637195D01*
X346148Y626557D01*
X346148Y611512D01*
X356786Y600873D01*
X363094Y600873D01*
X364047Y600688D01*
X364890Y600129D01*
X380256Y584763D01*
X380799Y583958D01*
X381000Y582967D01*
X381000Y534197D01*
X380814Y533244D01*
X380256Y532401D01*
X378627Y530772D01*
X375920Y524237D01*
X375920Y501923D01*
X378627Y495388D01*
X378732Y495283D01*
X379275Y494478D01*
X379476Y493487D01*
X379476Y83531D01*
X381641Y78303D01*
X437296Y22648D01*
X437839Y21843D01*
X438040Y20852D01*
X438040Y19049D01*
X440957Y12007D01*
X446347Y6617D01*
X453389Y3700D01*
G37*
G36*
X621029Y3700D02*
X628651Y3700D01*
X635693Y6617D01*
X641083Y12007D01*
X644000Y19049D01*
X644000Y23007D01*
X644186Y23961D01*
X644744Y24803D01*
X694027Y74086D01*
X695960Y78754D01*
X695960Y491963D01*
X696146Y492916D01*
X696704Y493759D01*
X698333Y495389D01*
X698645Y496140D01*
X699139Y496906D01*
X699963Y497491D01*
X700951Y497708D01*
X701945Y497523D01*
X702787Y496964D01*
X702905Y496847D01*
X706639Y495300D01*
X707898Y495300D01*
X707898Y530860D01*
X706639Y530860D01*
X702905Y529313D01*
X702787Y529196D01*
X702038Y528677D01*
X701052Y528452D01*
X700057Y528630D01*
X699210Y529181D01*
X698645Y530020D01*
X698333Y530772D01*
X696704Y532401D01*
X696161Y533206D01*
X695960Y534197D01*
X695960Y588178D01*
X694027Y592845D01*
X668782Y618090D01*
X668239Y618895D01*
X668038Y619886D01*
X668038Y626557D01*
X657400Y637195D01*
X642355Y637195D01*
X631716Y626557D01*
X631716Y611512D01*
X642355Y600873D01*
X649026Y600873D01*
X649979Y600688D01*
X650822Y600129D01*
X669816Y581135D01*
X670359Y580330D01*
X670560Y579339D01*
X670560Y534197D01*
X670374Y533244D01*
X669816Y532401D01*
X668187Y530772D01*
X665480Y524237D01*
X665480Y501923D01*
X668187Y495388D01*
X669816Y493759D01*
X670359Y492954D01*
X670560Y491963D01*
X670560Y87593D01*
X670374Y86639D01*
X669816Y85797D01*
X626783Y42764D01*
X625978Y42221D01*
X624987Y42020D01*
X621029Y42020D01*
X613987Y39103D01*
X608597Y33713D01*
X605680Y26671D01*
X605680Y19049D01*
X608597Y12007D01*
X613987Y6617D01*
X621029Y3700D01*
G37*
G36*
X1052322Y619796D02*
X1062101Y619796D01*
X1062101Y623401D01*
X1055926Y629575D01*
X1052322Y629575D01*
X1052322Y619796D01*
G37*
G36*
X1041019Y619796D02*
X1050798Y619796D01*
X1050798Y629575D01*
X1047194Y629575D01*
X1041019Y623401D01*
X1041019Y619796D01*
G37*
G36*
X924905Y619796D02*
X934684Y619796D01*
X934684Y629575D01*
X931080Y629575D01*
X924905Y623401D01*
X924905Y619796D01*
G37*
G36*
X936208Y619796D02*
X945987Y619796D01*
X945987Y623401D01*
X939812Y629575D01*
X936208Y629575D01*
X936208Y619796D01*
G37*
G36*
X931080Y608493D02*
X934684Y608493D01*
X934684Y618272D01*
X924905Y618272D01*
X924905Y614668D01*
X931080Y608493D01*
G37*
G36*
X1052322Y608493D02*
X1055926Y608493D01*
X1062101Y614668D01*
X1062101Y618272D01*
X1052322Y618272D01*
X1052322Y608493D01*
G37*
G36*
X1047194Y608493D02*
X1050798Y608493D01*
X1050798Y618272D01*
X1041019Y618272D01*
X1041019Y614668D01*
X1047194Y608493D01*
G37*
G36*
X936208Y608493D02*
X939812Y608493D01*
X945987Y614668D01*
X945987Y618272D01*
X936208Y618272D01*
X936208Y608493D01*
G37*
G36*
X803909Y3700D02*
X811531Y3700D01*
X818573Y6617D01*
X823963Y12007D01*
X826880Y19049D01*
X826880Y23007D01*
X827066Y23961D01*
X827624Y24803D01*
X833727Y30906D01*
X835660Y35574D01*
X835660Y176567D01*
X835846Y177521D01*
X836404Y178363D01*
X983587Y325546D01*
X985520Y330214D01*
X985520Y491963D01*
X985706Y492916D01*
X986264Y493759D01*
X987893Y495389D01*
X988205Y496140D01*
X988699Y496906D01*
X989523Y497491D01*
X990511Y497708D01*
X991505Y497523D01*
X992347Y496964D01*
X992465Y496847D01*
X996199Y495300D01*
X997458Y495300D01*
X997458Y530860D01*
X996199Y530860D01*
X992465Y529313D01*
X992347Y529196D01*
X991598Y528677D01*
X990612Y528452D01*
X989617Y528630D01*
X988770Y529181D01*
X988205Y530020D01*
X987893Y530772D01*
X982892Y535773D01*
X976357Y538480D01*
X969283Y538480D01*
X968092Y537986D01*
X967160Y537793D01*
X966166Y537979D01*
X965324Y538537D01*
X950174Y553687D01*
X949647Y554455D01*
X949430Y555442D01*
X949616Y556436D01*
X950174Y557279D01*
X953607Y560712D01*
X953607Y575757D01*
X942968Y586395D01*
X927923Y586395D01*
X917285Y575757D01*
X917285Y560712D01*
X922002Y555995D01*
X922545Y555189D01*
X922746Y554199D01*
X922746Y547928D01*
X924679Y543260D01*
X954296Y513643D01*
X954839Y512838D01*
X955040Y511847D01*
X955040Y501923D01*
X957747Y495388D01*
X959376Y493759D01*
X959919Y492954D01*
X960120Y491963D01*
X960120Y339053D01*
X959934Y338099D01*
X959376Y337257D01*
X812193Y190074D01*
X810260Y185406D01*
X810260Y44560D01*
X810089Y43644D01*
X809544Y42793D01*
X808711Y42221D01*
X807720Y42020D01*
X803909Y42020D01*
X796867Y39103D01*
X791477Y33713D01*
X788560Y26671D01*
X788560Y19049D01*
X791477Y12007D01*
X796867Y6617D01*
X803909Y3700D01*
G37*
G36*
X469882Y568996D02*
X479661Y568996D01*
X479661Y578775D01*
X476057Y578775D01*
X469882Y572601D01*
X469882Y568996D01*
G37*
G36*
X68199Y568996D02*
X77978Y568996D01*
X77978Y578775D01*
X74374Y578775D01*
X68199Y572601D01*
X68199Y568996D01*
G37*
G36*
X755450Y568996D02*
X765229Y568996D01*
X765229Y578775D01*
X761625Y578775D01*
X755450Y572601D01*
X755450Y568996D01*
G37*
G36*
X650639Y568996D02*
X660418Y568996D01*
X660418Y572601D01*
X654243Y578775D01*
X650639Y578775D01*
X650639Y568996D01*
G37*
G36*
X353768Y568996D02*
X363547Y568996D01*
X363547Y578775D01*
X359942Y578775D01*
X353768Y572601D01*
X353768Y568996D01*
G37*
G36*
X639336Y568996D02*
X649115Y568996D01*
X649115Y578775D01*
X645511Y578775D01*
X639336Y572601D01*
X639336Y568996D01*
G37*
G36*
X184313Y568996D02*
X194092Y568996D01*
X194092Y578775D01*
X190488Y578775D01*
X184313Y572601D01*
X184313Y568996D01*
G37*
G36*
X766753Y568996D02*
X776532Y568996D01*
X776532Y572601D01*
X770358Y578775D01*
X766753Y578775D01*
X766753Y568996D01*
G37*
G36*
X195616Y568996D02*
X205395Y568996D01*
X205395Y572601D01*
X199220Y578775D01*
X195616Y578775D01*
X195616Y568996D01*
G37*
G36*
X365071Y568996D02*
X374850Y568996D01*
X374850Y572601D01*
X368675Y578775D01*
X365071Y578775D01*
X365071Y568996D01*
G37*
G36*
X481185Y568996D02*
X490964Y568996D01*
X490964Y572601D01*
X484789Y578775D01*
X481185Y578775D01*
X481185Y568996D01*
G37*
G36*
X766753Y557693D02*
X770358Y557693D01*
X776532Y563868D01*
X776532Y567472D01*
X766753Y567472D01*
X766753Y557693D01*
G37*
G36*
X761625Y557693D02*
X765229Y557693D01*
X765229Y567472D01*
X755450Y567472D01*
X755450Y563868D01*
X761625Y557693D01*
G37*
G36*
X650639Y557693D02*
X654243Y557693D01*
X660418Y563868D01*
X660418Y567472D01*
X650639Y567472D01*
X650639Y557693D01*
G37*
G36*
X645511Y557693D02*
X649115Y557693D01*
X649115Y567472D01*
X639336Y567472D01*
X639336Y563868D01*
X645511Y557693D01*
G37*
G36*
X481185Y557693D02*
X484789Y557693D01*
X490964Y563868D01*
X490964Y567472D01*
X481185Y567472D01*
X481185Y557693D01*
G37*
G36*
X476057Y557693D02*
X479661Y557693D01*
X479661Y567472D01*
X469882Y567472D01*
X469882Y563868D01*
X476057Y557693D01*
G37*
G36*
X365071Y557693D02*
X368675Y557693D01*
X374850Y563868D01*
X374850Y567472D01*
X365071Y567472D01*
X365071Y557693D01*
G37*
G36*
X359942Y557693D02*
X363547Y557693D01*
X363547Y567472D01*
X353768Y567472D01*
X353768Y563868D01*
X359942Y557693D01*
G37*
G36*
X195616Y557693D02*
X199220Y557693D01*
X205395Y563868D01*
X205395Y567472D01*
X195616Y567472D01*
X195616Y557693D01*
G37*
G36*
X190488Y557693D02*
X194092Y557693D01*
X194092Y567472D01*
X184313Y567472D01*
X184313Y563868D01*
X190488Y557693D01*
G37*
G36*
X74374Y557693D02*
X77978Y557693D01*
X77978Y567472D01*
X68199Y567472D01*
X68199Y563868D01*
X74374Y557693D01*
G37*
G36*
X849996Y423418D02*
X856884Y423418D01*
X863538Y425201D01*
X869504Y428645D01*
X874375Y433516D01*
X877819Y439482D01*
X879602Y446136D01*
X879602Y453024D01*
X877819Y459678D01*
X874375Y465644D01*
X869504Y470515D01*
X863538Y473959D01*
X856884Y475742D01*
X849996Y475742D01*
X843342Y473959D01*
X837376Y470515D01*
X832505Y465644D01*
X829061Y459678D01*
X827278Y453024D01*
X827278Y446136D01*
X829061Y439482D01*
X832505Y433516D01*
X837376Y428645D01*
X843342Y425201D01*
X849996Y423418D01*
G37*
G36*
X270876Y423418D02*
X277764Y423418D01*
X284418Y425201D01*
X290384Y428645D01*
X295255Y433516D01*
X298699Y439482D01*
X300482Y446136D01*
X300482Y453024D01*
X298699Y459678D01*
X295255Y465644D01*
X290384Y470515D01*
X284418Y473959D01*
X277764Y475742D01*
X270876Y475742D01*
X264222Y473959D01*
X258256Y470515D01*
X253385Y465644D01*
X249941Y459678D01*
X248158Y453024D01*
X248158Y446136D01*
X249941Y439482D01*
X253385Y433516D01*
X258256Y428645D01*
X264222Y425201D01*
X270876Y423418D01*
G37*
G36*
X1101456Y-762D02*
X1108344Y-762D01*
X1114998Y1021D01*
X1120964Y4465D01*
X1125835Y9336D01*
X1129279Y15302D01*
X1131062Y21956D01*
X1131062Y28844D01*
X1129279Y35498D01*
X1125835Y41464D01*
X1120964Y46335D01*
X1114998Y49779D01*
X1108344Y51562D01*
X1101456Y51562D01*
X1094802Y49779D01*
X1088836Y46335D01*
X1083965Y41464D01*
X1080521Y35498D01*
X1078738Y28844D01*
X1078738Y21956D01*
X1080521Y15302D01*
X1083965Y9336D01*
X1088836Y4465D01*
X1094802Y1021D01*
X1101456Y-762D01*
G37*
G36*
X72756Y-762D02*
X79644Y-762D01*
X86298Y1021D01*
X92264Y4465D01*
X97135Y9336D01*
X100579Y15302D01*
X102362Y21956D01*
X102362Y28844D01*
X100579Y35498D01*
X97135Y41464D01*
X92264Y46335D01*
X86298Y49779D01*
X79644Y51562D01*
X72756Y51562D01*
X66102Y49779D01*
X60136Y46335D01*
X55265Y41464D01*
X51821Y35498D01*
X50038Y28844D01*
X50038Y21956D01*
X51821Y15302D01*
X55265Y9336D01*
X60136Y4465D01*
X66102Y1021D01*
X72756Y-762D01*
G37*
G36*
X745380Y23622D02*
X756158Y23622D01*
X756158Y34400D01*
X754625Y34400D01*
X750383Y32643D01*
X747137Y29397D01*
X745380Y25155D01*
X745380Y23622D01*
G37*
G36*
X562500Y23622D02*
X573278Y23622D01*
X573278Y34400D01*
X571745Y34400D01*
X567503Y32643D01*
X564257Y29397D01*
X562500Y25155D01*
X562500Y23622D01*
G37*
G36*
X394860Y23622D02*
X405638Y23622D01*
X405638Y34400D01*
X404105Y34400D01*
X399863Y32643D01*
X396617Y29397D01*
X394860Y25155D01*
X394860Y23622D01*
G37*
G36*
X196740Y23622D02*
X207518Y23622D01*
X207518Y34400D01*
X205985Y34400D01*
X201743Y32643D01*
X198497Y29397D01*
X196740Y25155D01*
X196740Y23622D01*
G37*
G36*
X920640Y23622D02*
X931418Y23622D01*
X931418Y34400D01*
X929885Y34400D01*
X925643Y32643D01*
X922397Y29397D01*
X920640Y25155D01*
X920640Y23622D01*
G37*
G36*
X932942Y23622D02*
X943720Y23622D01*
X943720Y25155D01*
X941963Y29397D01*
X938717Y32643D01*
X934475Y34400D01*
X932942Y34400D01*
X932942Y23622D01*
G37*
G36*
X209042Y23622D02*
X219820Y23622D01*
X219820Y25155D01*
X218063Y29397D01*
X214817Y32643D01*
X210575Y34400D01*
X209042Y34400D01*
X209042Y23622D01*
G37*
G36*
X407162Y23622D02*
X417940Y23622D01*
X417940Y25155D01*
X416183Y29397D01*
X412937Y32643D01*
X408695Y34400D01*
X407162Y34400D01*
X407162Y23622D01*
G37*
G36*
X574802Y23622D02*
X585580Y23622D01*
X585580Y25155D01*
X583823Y29397D01*
X580577Y32643D01*
X576335Y34400D01*
X574802Y34400D01*
X574802Y23622D01*
G37*
G36*
X757682Y23622D02*
X768460Y23622D01*
X768460Y25155D01*
X766703Y29397D01*
X763457Y32643D01*
X759215Y34400D01*
X757682Y34400D01*
X757682Y23622D01*
G37*
G36*
X932942Y11320D02*
X934475Y11320D01*
X938717Y13077D01*
X941963Y16323D01*
X943720Y20565D01*
X943720Y22098D01*
X932942Y22098D01*
X932942Y11320D01*
G37*
G36*
X929885Y11320D02*
X931418Y11320D01*
X931418Y22098D01*
X920640Y22098D01*
X920640Y20565D01*
X922397Y16323D01*
X925643Y13077D01*
X929885Y11320D01*
G37*
G36*
X757682Y11320D02*
X759215Y11320D01*
X763457Y13077D01*
X766703Y16323D01*
X768460Y20565D01*
X768460Y22098D01*
X757682Y22098D01*
X757682Y11320D01*
G37*
G36*
X754625Y11320D02*
X756158Y11320D01*
X756158Y22098D01*
X745380Y22098D01*
X745380Y20565D01*
X747137Y16323D01*
X750383Y13077D01*
X754625Y11320D01*
G37*
G36*
X574802Y11320D02*
X576335Y11320D01*
X580577Y13077D01*
X583823Y16323D01*
X585580Y20565D01*
X585580Y22098D01*
X574802Y22098D01*
X574802Y11320D01*
G37*
G36*
X571745Y11320D02*
X573278Y11320D01*
X573278Y22098D01*
X562500Y22098D01*
X562500Y20565D01*
X564257Y16323D01*
X567503Y13077D01*
X571745Y11320D01*
G37*
G36*
X407162Y11320D02*
X408695Y11320D01*
X412937Y13077D01*
X416183Y16323D01*
X417940Y20565D01*
X417940Y22098D01*
X407162Y22098D01*
X407162Y11320D01*
G37*
G36*
X404105Y11320D02*
X405638Y11320D01*
X405638Y22098D01*
X394860Y22098D01*
X394860Y20565D01*
X396617Y16323D01*
X399863Y13077D01*
X404105Y11320D01*
G37*
G36*
X209042Y11320D02*
X210575Y11320D01*
X214817Y13077D01*
X218063Y16323D01*
X219820Y20565D01*
X219820Y22098D01*
X209042Y22098D01*
X209042Y11320D01*
G37*
G36*
X205985Y11320D02*
X207518Y11320D01*
X207518Y22098D01*
X196740Y22098D01*
X196740Y20565D01*
X198497Y16323D01*
X201743Y13077D01*
X205985Y11320D01*
G37*
%LPD*%
D10*
X444500Y520700D02*
X444500Y505460D01*
X419100Y505460D02*
X419100Y520700D01*
X393700Y520700D02*
X393700Y505460D01*
X734060Y505460D02*
X734060Y520700D01*
X708660Y520700D02*
X708660Y505460D01*
X683260Y505460D02*
X683260Y520700D01*
X154940Y520700D02*
X154940Y505460D01*
X129540Y505460D02*
X129540Y520700D01*
X104140Y520700D02*
X104140Y505460D01*
D11*
X765991Y619034D03*
X765991Y568234D03*
X649877Y619034D03*
X649877Y568234D03*
X364309Y619034D03*
X364309Y568234D03*
X78740Y619034D03*
X78740Y568234D03*
X194854Y619034D03*
X194854Y568234D03*
X480423Y619034D03*
X480423Y568234D03*
D10*
X1023620Y520700D02*
X1023620Y505460D01*
X998220Y505460D02*
X998220Y520700D01*
X972820Y520700D02*
X972820Y505460D01*
D12*
X1051560Y568234D03*
X1051560Y619034D03*
X935446Y568234D03*
X935446Y619034D03*
D13*
X259080Y22860D03*
X208280Y22860D03*
X457200Y22860D03*
X406400Y22860D03*
X624840Y22860D03*
X574040Y22860D03*
X982980Y22860D03*
X932180Y22860D03*
X807720Y22860D03*
X756920Y22860D03*
X548640Y693420D03*
X599440Y693420D03*
D14*
X601980Y660400D02*
X724626Y660400D01*
X601980Y660400D02*
X589280Y660400D01*
X724626Y660400D02*
X765991Y619034D01*
X790666Y619034D01*
X807720Y601980D01*
X807720Y541020D01*
X777240Y510540D01*
X739140Y510540D01*
D15*
X551180Y650240D02*
X519974Y619034D01*
X480423Y619034D01*
X444500Y583111D01*
X444500Y513080D01*
D14*
X921294Y698500D02*
X1051560Y568234D01*
X1051560Y541020D01*
X1023620Y513080D01*
X510540Y731520D02*
X297180Y731520D01*
X194854Y629194D01*
X194854Y619034D01*
X154940Y579120D01*
X154940Y513080D01*
D16*
X510540Y731520D02*
X548640Y693420D01*
X551180Y690880D01*
D15*
X551180Y650240D01*
D16*
X581660Y660400D02*
X548640Y693420D01*
X581660Y660400D02*
X601980Y660400D01*
X579992Y724772D02*
X895022Y724772D01*
X921294Y698500D01*
X579992Y724772D02*
X548640Y693420D01*
D15*
X548640Y731520D01*
X579120Y762000D01*
X960120Y762000D01*
X1104900Y617220D01*
X1104900Y251460D01*
X982980Y129540D01*
X982980Y22860D01*
D14*
X104140Y593634D02*
X78740Y619034D01*
X104140Y593634D02*
X104140Y513080D01*
X107696Y509524D01*
X107696Y408128D01*
X259444Y256380D01*
X259444Y23224D01*
X259080Y22860D01*
X393700Y513080D02*
X393700Y589280D01*
X365760Y617220D01*
D15*
X393700Y513080D02*
X393700Y106680D01*
X393700Y86360D01*
X457200Y22860D01*
D14*
X683260Y513080D02*
X683260Y585651D01*
X649877Y619034D01*
X683260Y513080D02*
X683260Y81280D01*
X624840Y22860D01*
X972820Y513080D02*
X935446Y550454D01*
X935446Y568234D01*
X972820Y513080D02*
X972820Y332740D01*
X822960Y182880D01*
X822960Y38100D02*
X807720Y22860D01*
X822960Y38100D02*
X822960Y182880D01*
M02*
